# xmcd CD database file
#
# Track frame offsets:
#	182
#	39540
#	68030
#	102370
#	134832
#	166515
#	186940
#
# Disc length: 2800 seconds
#
# Revision: 1
# Processed by: cddbd v1.5.2PL0 Copyright (c) Steve Scherf et al.
# Submitted via: CDex 1.50
#
DISCID=5d0aee07
DTITLE=François Chassagnite - Samya Cynthia_François Chassagnite Quartet (F Chassagnite, A Mattei, J Bardy, O Jonhson)
DYEAR=1989
DGENRE=Jazz
TTITLE0=One eye transvestite
TTITLE1=Samya Cynthia
TTITLE2=Spirale
TTITLE3=César le chien
TTITLE4=You're my everything
TTITLE5=Double blues
TTITLE6=What is this thing called love ?
EXTD=YEAR: 1989
EXTT0=
EXTT1=
EXTT2=
EXTT3=
EXTT4=
EXTT5=
EXTT6=
PLAYORDER=
